<svg viewBox="-0.5 -0.5 16 16" fill="none" xmlns="http://www.w3.org/2000/svg" id="Thumbs-Down--Streamline-Iconoir" height="16" width="16"><desc>Thumbs Down Streamline Icon: https://streamlinehq.com</desc><path d="M11.046625 0.7370625H1.3623750000000001c-0.25937499999999997 0 -0.46962499999999996 0.21025 -0.46962499999999996 0.46962499999999996v7.67075c0 0.2594375 0.21025 0.4696875 0.46962499999999996 0.4696875h2.1663125c0.549875 0 1.0594375 0.2885 1.342375 0.76l2.1215 3.5359374999999997c0.4578125 0.7629374999999999 1.5359999999999998 0.8354375 2.0918125 0.140625 0.262 -0.3275 0.3464375 -0.7626875 0.22593749999999999 -1.1644375l-0.80025 -2.6675625c-0.0904375 -0.301375 0.13525 -0.6045625 0.4498125 -0.6045625h3.5810625000000003c1.0321875 0 1.7818749999999999 -0.9815625 1.5103125 -1.977375L12.5569375 1.890625c-0.18575000000000003 -0.6810624999999999 -0.804375 -1.1535625 -1.5103125 -1.1535625Z" stroke="#ef8354" stroke-linecap="round" stroke-width="1"></path><path d="M3.6323125000000003 9.347125V0.7370625" stroke="#ef8354" stroke-linecap="round" stroke-linejoin="round" stroke-width="1"></path></svg>